<?xml version="1.0" standalone="no"?>
<!DOCTYPE svg PUBLIC "-//W3C//DTD SVG 20010904//EN"
 "http://www.w3.org/TR/2001/REC-SVG-20010904/DTD/svg10.dtd">
<svg version="1.0" xmlns="http://www.w3.org/2000/svg"
 width="1599.000000pt" height="424.000000pt" viewBox="0 0 1599.000000 424.000000"
 preserveAspectRatio="xMidYMid meet">
<metadata>
Created by potrace 1.16, written by Peter Selinger 2001-2019
</metadata>
<g transform="translate(0.000000,424.000000) scale(0.100000,-0.100000)"
fill="#000000" stroke="none">
<path d="M2179 2527 c-58 -14 -153 -28 -165 -23 -6 2 -34 -2 -63 -10 -29 -7
-65 -11 -80 -8 -18 4 -33 0 -43 -9 -8 -9 -21 -15 -29 -15 -8 1 -27 0 -44 -1
l-30 -3 25 -9 c19 -7 15 -8 -17 -4 -26 3 -43 1 -43 -5 0 -5 -9 -10 -21 -10
-27 0 -48 -22 -55 -59 -4 -16 -17 -40 -30 -52 -13 -12 -24 -30 -24 -39 0 -9
-11 -27 -25 -40 -14 -13 -23 -26 -20 -28 3 -3 -6 -20 -20 -38 -14 -18 -25 -38
-25 -44 0 -7 -7 -27 -16 -46 -9 -19 -14 -37 -11 -41 7 -6 127 28 182 52 85 37
287 95 329 95 21 0 36 6 40 15 3 8 11 15 18 15 9 0 8 -3 -2 -10 -10 -6 10 -7
58 -3 39 3 72 3 72 1 0 -3 -20 -42 -45 -86 -25 -44 -45 -84 -45 -90 0 -5 -7
-15 -15 -22 -9 -7 -14 -19 -11 -27 3 -7 2 -13 -2 -13 -4 0 -16 -18 -26 -40
-11 -22 -22 -40 -26 -40 -3 0 -16 -18 -29 -40 -19 -33 -27 -40 -54 -40 -18 0
-59 -12 -92 -25 -33 -14 -66 -25 -74 -25 -24 0 -128 -115 -134 -150 -17 -83
-3 -170 35 -219 22 -30 23 -36 0 -58 -24 -23 -103 -147 -126 -195 -9 -21 -21
-38 -25 -38 -11 0 -42 -81 -35 -91 3 -5 22 -9 43 -9 41 0 82 -22 63 -34 -6 -4
-20 -2 -31 4 -45 23 -87 8 -91 -35 -4 -37 0 -43 34 -55 28 -9 40 -8 66 5 17 9
28 20 25 26 -7 10 20 42 89 111 28 27 42 35 47 26 6 -9 10 -8 15 5 4 12 0 23
-12 33 -17 12 -17 13 -1 8 9 -3 17 -2 17 4 0 5 -20 15 -45 21 -37 9 -45 15
-45 34 0 13 9 32 19 44 10 11 26 33 34 49 8 16 29 42 45 58 26 24 36 27 65 22
99 -19 400 -2 432 24 6 4 19 10 30 13 17 4 16 5 -5 6 -23 2 -22 3 10 17 19 8
45 12 58 9 25 -6 102 13 102 27 0 13 -28 10 -60 -7 -17 -9 -30 -12 -30 -8 0 5
28 21 63 37 34 15 84 39 111 53 27 13 54 22 61 20 6 -3 12 5 12 17 2 25 48 65
72 61 9 -1 10 0 4 2 -31 11 -1 35 34 27 11 -2 25 5 37 22 18 26 18 26 -3 19
-12 -4 -21 -2 -21 4 0 10 14 15 34 12 5 -1 6 4 3 12 -3 8 -1 20 4 28 6 10 9
10 9 2 0 -7 7 -13 16 -13 11 0 14 6 9 21 -5 13 -3 19 3 15 5 -3 15 1 22 9 7 8
9 15 4 15 -5 0 -1 5 9 11 9 5 17 16 17 23 0 7 9 23 19 35 12 13 23 46 27 77 3
30 13 62 21 70 15 15 13 17 -32 27 -13 3 -10 5 10 6 l30 1 -1 63 c0 34 -6 84
-13 110 -6 27 -9 52 -6 57 3 5 1 11 -4 15 -6 3 -8 12 -5 19 3 8 1 17 -5 21 -6
3 -11 15 -11 25 0 23 -41 89 -56 90 -6 0 -19 9 -29 20 -10 11 -24 20 -31 20
-8 0 -37 11 -66 23 -85 38 -261 63 -320 46 -18 -5 -26 -4 -22 2 7 12 -85 9
-137 -4z m270 -300 c6 -8 37 -19 68 -26 114 -25 173 -63 178 -115 2 -14 6 -29
9 -35 4 -5 2 -12 -4 -16 -5 -3 -10 -28 -10 -54 0 -28 -6 -53 -13 -59 -7 -6
-19 -27 -27 -47 -7 -19 -17 -35 -22 -35 -4 0 -8 -5 -8 -10 0 -17 -43 -70 -56
-70 -6 0 -14 -6 -17 -14 -6 -14 -30 -30 -97 -62 -88 -42 -119 -52 -175 -58
-77 -7 -324 -10 -330 -4 -14 14 11 37 53 48 26 6 56 15 67 20 115 45 129 57
114 98 -7 17 -16 22 -46 22 -56 0 -80 9 -90 33 -9 18 -5 27 21 52 50 48 76 86
76 110 0 13 7 25 15 29 8 3 15 10 15 16 0 6 -4 9 -9 6 -5 -4 -7 3 -4 13 3 11
14 22 26 25 12 3 18 8 15 11 -3 4 6 19 20 34 15 15 34 38 43 51 15 23 22 25
88 22 78 -3 116 8 66 19 -29 6 -29 7 -4 8 15 0 32 -5 38 -12z"/>
<path d="M7462 2505 c-40 -7 -81 -17 -90 -21 -21 -9 -21 -9 -57 -19 -16 -4
-34 -11 -40 -15 -5 -4 -48 -28 -95 -53 -47 -25 -101 -53 -120 -64 -19 -10 -40
-24 -48 -30 -7 -7 -25 -16 -40 -19 -15 -3 -32 -7 -39 -9 -7 -2 -21 7 -32 21
l-20 26 26 22 c21 18 26 31 25 61 -2 43 -25 85 -48 85 -22 0 -66 -25 -90 -52
-41 -45 -148 -251 -170 -327 -22 -77 -21 -148 3 -172 20 -20 201 -12 248 10
110 52 188 86 230 103 48 18 93 39 125 57 8 5 29 15 45 22 17 7 57 32 90 55
85 59 133 80 148 65 9 -9 8 -18 -4 -39 -8 -15 -22 -38 -30 -52 -8 -14 -22 -31
-31 -38 -10 -7 -18 -19 -18 -26 0 -7 -9 -21 -20 -31 -11 -10 -43 -53 -72 -97
-53 -80 -90 -108 -143 -108 -21 0 -97 -38 -141 -70 -24 -17 -27 -29 -27 -127
0 -44 5 -78 12 -87 17 -21 8 -55 -26 -94 -15 -17 -39 -48 -53 -68 -32 -46
-101 -129 -145 -175 -19 -20 -35 -40 -35 -46 0 -5 -13 -22 -30 -38 -36 -34
-55 -86 -42 -112 34 -62 98 -72 188 -28 74 36 152 94 160 118 7 23 -31 67 -59
67 -19 0 -19 1 -4 18 10 10 17 21 17 24 0 3 16 23 35 44 19 21 35 43 35 50 0
6 7 15 15 18 9 3 23 22 31 41 15 36 37 45 51 21 4 -7 22 -20 39 -29 17 -9 36
-23 44 -32 7 -8 29 -22 49 -31 105 -46 148 -69 175 -95 17 -16 35 -29 39 -29
4 0 35 -18 67 -40 33 -22 67 -43 75 -46 8 -4 28 -18 44 -33 16 -14 46 -35 67
-46 22 -11 62 -34 91 -52 29 -18 58 -33 65 -33 8 0 22 -6 33 -14 11 -7 27 -14
35 -15 8 -1 35 -4 59 -7 53 -8 91 10 91 42 0 22 -28 89 -66 156 -8 16 -25 33
-36 39 -12 7 -30 20 -41 29 -10 10 -39 29 -63 42 -24 12 -44 29 -44 35 0 7 -9
13 -21 13 -11 0 -17 5 -14 10 3 5 0 10 -8 10 -21 0 -77 30 -77 42 0 5 -7 8
-15 4 -9 -3 -19 3 -25 14 -6 12 -21 20 -35 20 -14 0 -25 5 -25 10 0 6 -17 18
-37 28 -21 9 -42 23 -46 30 -4 6 -20 12 -34 12 -14 0 -31 6 -37 14 -6 8 -31
25 -56 39 -90 49 -110 62 -110 71 0 5 -10 28 -22 52 l-22 44 21 22 c11 13 23
30 27 38 30 66 60 92 168 146 132 66 345 164 357 164 6 0 19 4 29 9 35 18 138
60 165 66 15 4 30 11 33 16 3 5 16 9 29 9 21 0 26 -6 31 -40 5 -30 11 -40 25
-40 16 0 117 96 129 123 13 32 63 99 75 104 10 3 15 21 15 55 0 51 -15 78 -44
78 -9 0 -16 5 -16 11 0 20 -92 2 -155 -30 -33 -17 -91 -45 -130 -62 -38 -17
-81 -39 -95 -49 -14 -10 -65 -39 -115 -65 -49 -27 -106 -57 -125 -69 -97 -58
-146 -71 -107 -28 10 10 17 23 17 29 0 5 13 26 30 45 82 96 103 194 53 242
-70 65 -152 84 -271 61z"/>
<path d="M10243 2433 c-39 -36 -93 -107 -93 -124 0 -8 -7 -23 -15 -33 -8 -10
-12 -22 -10 -27 3 -4 1 -10 -5 -14 -5 -3 -10 -15 -10 -25 0 -10 -6 -25 -13
-32 -15 -15 -34 -56 -99 -208 -6 -14 -14 -33 -19 -42 -5 -10 -9 -22 -9 -28 0
-18 -153 -240 -201 -291 -16 -17 -38 -46 -49 -65 -12 -18 -27 -34 -33 -34 -7
0 -25 -20 -40 -44 -16 -25 -46 -60 -68 -78 -23 -18 -67 -57 -100 -85 -32 -29
-60 -53 -62 -53 -2 0 -29 -5 -61 -11 -72 -13 -134 2 -172 43 l-26 27 33 45
c18 25 36 46 41 46 4 0 19 17 32 38 13 21 50 65 81 98 60 62 91 119 105 192
10 56 -3 84 -50 104 -56 23 -92 16 -151 -31 -28 -22 -56 -41 -60 -41 -5 0 -9
-6 -9 -13 0 -7 -16 -29 -36 -48 -19 -18 -42 -50 -50 -69 -9 -19 -21 -48 -29
-65 -42 -96 -55 -138 -55 -177 0 -60 -37 -100 -108 -117 -29 -7 -56 -10 -59
-7 -4 3 0 18 7 33 7 16 14 37 16 48 2 11 11 52 20 90 21 87 25 256 7 262 -16
6 -17 59 -3 68 8 5 7 12 -1 22 -10 11 -10 16 -1 22 9 5 5 11 -13 19 -14 6 -25
18 -25 25 0 21 -82 41 -138 33 -26 -3 -87 -27 -137 -52 -73 -37 -103 -60 -160
-121 -38 -42 -83 -101 -98 -132 -16 -30 -32 -60 -36 -66 -18 -22 -43 -266 -31
-304 4 -14 15 -51 24 -82 12 -40 29 -68 61 -99 39 -38 51 -44 97 -47 89 -7
168 25 239 97 53 53 65 60 112 66 29 4 87 24 131 45 43 21 82 36 87 33 5 -3 9
-25 9 -48 0 -68 32 -118 97 -153 59 -32 96 -29 158 12 29 19 65 39 79 45 32
12 29 9 148 114 53 47 102 86 107 86 6 0 11 -10 11 -21 0 -12 8 -27 17 -34 15
-11 14 -17 -9 -76 -37 -93 -75 -214 -93 -297 -8 -39 -22 -88 -30 -108 -16 -38
-21 -190 -7 -196 4 -1 23 -24 41 -50 34 -48 58 -62 124 -73 64 -10 101 15 224
156 79 91 113 133 113 143 0 5 23 54 51 108 l50 98 2 108 3 108 40 40 c22 22
53 57 68 77 16 21 32 34 36 30 4 -4 12 -34 19 -65 7 -32 17 -60 22 -63 5 -4 9
-13 9 -21 0 -28 43 -74 74 -80 57 -10 105 22 175 117 71 97 116 149 129 149 6
0 12 7 12 15 0 8 5 15 11 15 6 0 36 25 66 55 49 49 88 74 99 63 2 -3 -8 -27
-22 -54 -62 -115 -114 -345 -82 -365 20 -13 59 -11 109 6 41 14 71 38 211 171
31 30 63 54 70 54 6 0 26 14 44 31 l32 31 -8 -41 c-4 -22 -12 -47 -19 -55 -6
-7 -14 -38 -17 -67 -11 -106 -9 -115 33 -144 21 -14 49 -25 63 -25 33 0 179
57 205 80 11 10 38 29 60 44 22 14 50 33 63 42 29 21 41 11 66 -56 22 -55 38
-75 95 -112 33 -20 57 -28 90 -28 79 0 190 47 279 118 30 23 57 42 61 42 4 0
13 -12 20 -27 45 -99 76 -123 155 -123 70 0 200 56 251 109 17 17 37 31 47 31
9 0 30 -22 47 -50 28 -45 34 -50 67 -50 53 0 150 56 216 125 32 33 61 68 64
78 3 9 11 17 19 17 8 0 17 9 20 20 3 11 11 20 16 20 14 0 11 -68 -6 -100 -15
-28 -15 -165 -1 -189 11 -17 87 -33 124 -26 57 11 131 56 201 122 36 35 80 76
97 92 44 42 80 134 66 167 -15 32 -53 32 -97 -1 -18 -14 -49 -29 -69 -32 -33
-5 -36 -4 -36 18 0 13 11 47 25 74 13 28 25 55 25 61 0 6 13 28 30 50 16 21
30 45 30 52 0 6 4 12 9 12 5 0 16 15 25 34 8 18 23 39 32 47 24 20 54 89 54
126 0 47 -20 83 -49 89 -14 3 -31 7 -38 9 -21 7 -117 -36 -153 -69 -20 -18
-50 -41 -67 -51 -18 -10 -37 -29 -44 -43 -8 -13 -25 -34 -40 -46 -14 -12 -28
-27 -30 -33 -2 -6 -29 -38 -59 -71 -30 -32 -71 -80 -90 -105 -19 -26 -40 -46
-46 -47 -7 0 -14 -7 -18 -15 -3 -8 -17 -15 -31 -15 -23 0 -25 3 -20 23 4 12
14 33 24 46 9 13 24 38 34 55 10 17 43 55 73 84 58 58 67 78 62 138 -3 38 -4
39 -51 48 -59 12 -96 -5 -170 -76 -26 -27 -51 -48 -55 -48 -4 0 -18 -18 -32
-40 -14 -22 -30 -40 -37 -40 -7 0 -10 -6 -7 -14 3 -8 -3 -19 -15 -26 -12 -6
-21 -17 -21 -25 0 -8 -3 -15 -7 -15 -5 0 -19 -17 -33 -38 -13 -20 -36 -47 -50
-60 -39 -34 -131 -87 -177 -102 -46 -14 -84 -7 -65 12 7 7 12 21 12 33 0 12 7
30 15 41 8 10 15 26 15 34 0 8 14 30 31 48 17 18 47 54 66 79 30 40 34 51 29
84 -9 59 -24 90 -46 96 -20 5 -28 23 -10 23 14 0 40 55 40 85 0 55 -43 108
-96 119 -37 8 -210 -37 -249 -64 -5 -4 -21 -11 -35 -15 -73 -22 -172 -79 -230
-131 -98 -89 -188 -182 -207 -212 -49 -78 -105 -140 -135 -151 -18 -7 -45 -19
-60 -27 -14 -8 -39 -16 -55 -18 -15 -2 -36 -7 -46 -11 -51 -21 -37 48 23 114
17 18 30 35 30 39 0 4 23 31 50 61 28 30 50 60 50 67 0 7 5 16 10 19 14 9 12
107 -3 126 -24 32 -73 33 -145 3 -62 -26 -101 -47 -127 -67 -5 -4 -37 -25 -70
-47 -33 -21 -86 -57 -119 -79 -59 -41 -100 -56 -58 -22 12 11 22 24 22 29 0 6
11 23 24 39 34 41 86 137 86 159 0 10 -7 28 -15 38 -8 11 -15 28 -15 37 0 43
-113 42 -205 -2 -58 -27 -92 -55 -197 -161 -70 -70 -132 -128 -136 -128 -5 0
-30 -21 -56 -46 -26 -26 -49 -44 -52 -41 -3 3 -1 12 5 19 45 54 61 77 61 86 0
6 6 15 14 19 20 12 44 72 49 130 5 44 3 55 -17 76 -20 22 -28 24 -64 17 -44
-8 -110 -59 -163 -127 -51 -65 -60 -76 -123 -148 -34 -38 -86 -95 -117 -126
-31 -32 -64 -73 -73 -93 -9 -20 -27 -43 -40 -51 -22 -15 -26 -12 -109 69 l-86
84 41 63 c23 35 42 66 43 69 0 5 18 30 73 105 17 24 32 47 32 50 0 4 13 25 29
48 15 23 40 65 56 92 15 28 49 75 75 105 26 30 58 80 72 110 58 128 68 151 68
163 0 6 6 24 14 38 17 33 5 133 -20 160 -26 29 -83 25 -121 -8z m2129 -750
c-7 -3 -28 -28 -46 -56 -19 -29 -47 -65 -63 -82 -16 -16 -39 -45 -52 -64 -13
-18 -43 -50 -65 -71 -23 -21 -56 -52 -73 -69 -18 -17 -41 -32 -50 -32 -10 -1
-31 -3 -47 -5 -43 -5 -64 10 -60 44 5 43 22 82 38 88 8 3 27 24 42 46 27 38
131 118 154 118 5 0 18 4 28 10 22 12 142 66 162 73 20 7 50 7 32 0z m-3724
-166 c-26 -83 -31 -118 -30 -191 2 -69 -1 -83 -20 -103 -12 -13 -35 -27 -53
-32 -39 -11 -95 -3 -95 14 0 7 -5 15 -12 17 -7 3 -11 28 -11 65 0 60 1 63 57
132 32 39 63 71 70 71 6 1 29 16 51 35 21 18 42 32 46 29 4 -2 3 -19 -3 -37z
m1222 -393 c17 -3 31 -11 31 -17 1 -7 3 -23 6 -37 2 -14 4 -39 4 -56 1 -34
-40 -206 -51 -214 -4 -3 -14 -21 -24 -40 -16 -34 -70 -80 -94 -80 -37 0 -54
147 -28 236 8 27 24 83 36 124 12 41 23 81 25 88 4 9 15 12 35 8 16 -3 44 -9
60 -12z"/>
<path d="M5890 2441 c0 -5 -13 -14 -30 -21 -28 -12 -52 -36 -136 -140 -20 -25
-40 -46 -45 -48 -5 -2 -9 -10 -9 -17 0 -8 -8 -22 -18 -32 -22 -21 -92 -118
-92 -127 0 -11 -53 -121 -75 -156 -13 -19 -28 -53 -35 -75 -7 -22 -16 -44 -21
-49 -5 -6 -9 -26 -9 -46 0 -37 -26 -136 -40 -155 -9 -13 -20 -58 -26 -110 -5
-37 -39 -84 -61 -85 -4 0 -17 -7 -27 -15 -19 -14 -18 -15 5 -25 21 -9 20 -9
-10 -4 -27 5 -33 3 -28 -8 4 -11 -1 -14 -18 -11 -16 4 -24 -1 -28 -16 -3 -13
-13 -21 -26 -21 -12 0 -21 -4 -21 -9 0 -5 -11 -12 -24 -15 -14 -3 -32 -14 -42
-24 -10 -9 -25 -17 -33 -17 -10 0 -15 -8 -13 -18 2 -12 -4 -17 -22 -17 -14 0
-28 5 -31 10 -4 6 -11 8 -16 4 -39 -24 -89 46 -89 124 0 41 1 41 64 71 35 17
70 31 77 31 8 1 25 7 39 15 21 12 23 15 8 20 -21 8 -13 32 13 40 11 4 16 11
13 17 -4 7 -2 8 4 4 17 -10 15 -27 -5 -42 -29 -22 6 -17 50 6 20 11 43 20 51
20 8 0 17 7 20 16 4 9 13 14 21 10 8 -3 15 -1 15 3 0 5 15 25 33 44 65 67 81
161 38 227 -9 14 -23 37 -30 51 -16 33 -65 49 -122 39 -60 -10 -169 -50 -169
-61 0 -5 5 -9 10 -9 6 0 10 -5 10 -11 0 -7 -10 -9 -24 -5 -14 3 -28 1 -32 -6
-4 -7 -3 -8 4 -4 7 4 12 3 12 -3 0 -17 -22 -24 -31 -10 -6 10 -9 11 -9 2 0 -7
-8 -13 -19 -13 -24 0 -47 -26 -29 -33 10 -4 11 -7 1 -18 -10 -9 -13 -10 -13
-1 0 7 -7 12 -15 12 -8 0 -15 -5 -15 -10 0 -6 -11 -20 -25 -32 -27 -24 -32
-44 -12 -51 9 -3 7 -10 -7 -23 -18 -19 -18 -18 -11 4 8 26 -12 31 -22 5 -8
-21 -44 -75 -56 -84 -4 -3 -7 -10 -6 -15 4 -17 -56 -133 -68 -134 -18 0 -16
-20 2 -20 8 0 15 -5 15 -11 0 -5 -5 -7 -11 -3 -6 3 -14 2 -18 -4 -7 -11 -70
-23 -136 -26 -22 0 -43 -5 -46 -10 -4 -5 -11 -6 -17 -2 -6 4 7 37 34 86 24 44
44 83 44 86 0 3 16 25 35 48 19 24 35 48 35 54 0 6 3 12 8 14 13 5 42 78 42
104 0 55 -102 62 -173 11 -41 -28 -87 -78 -87 -94 0 -7 -9 -18 -20 -25 -11 -7
-20 -18 -20 -24 0 -16 -91 -188 -101 -192 -5 -2 -9 -14 -9 -27 0 -17 -15 -33
-54 -59 -30 -20 -59 -36 -65 -36 -6 0 -11 -5 -11 -11 0 -5 -5 -7 -10 -4 -6 4
-16 2 -23 -4 -29 -23 -63 -2 -70 45 -5 31 -1 43 33 88 45 60 153 166 169 166
6 0 11 7 11 15 0 8 7 15 15 15 8 0 18 12 21 28 4 15 11 30 16 33 5 3 11 22 15
43 7 44 -14 69 -65 79 -32 7 -140 -15 -151 -31 -3 -4 -27 -23 -52 -42 -25 -19
-55 -48 -67 -65 -39 -53 -117 -159 -132 -180 -14 -18 -66 -70 -101 -101 -9 -8
-21 -14 -28 -14 -7 0 -24 -6 -39 -14 -15 -8 -48 -17 -73 -21 -82 -12 -99 36
-49 141 12 24 31 49 41 55 10 5 19 19 19 30 0 11 5 17 10 14 6 -3 10 3 10 14
0 12 5 21 12 21 6 0 9 3 5 6 -3 4 0 12 6 19 7 7 19 32 27 55 l14 43 -34 30
c-20 18 -29 32 -22 35 7 2 12 10 12 18 0 7 11 21 25 30 20 13 23 21 19 47 -10
53 -45 76 -106 73 -64 -4 -91 -14 -84 -31 6 -16 -29 -26 -42 -13 -15 15 -52
-9 -52 -32 0 -11 -4 -20 -10 -20 -5 0 -10 4 -10 10 0 5 -13 1 -30 -8 -30 -17
-40 -42 -17 -42 6 0 4 -5 -6 -11 -9 -5 -23 -7 -30 -3 -7 5 -6 0 3 -11 8 -10
10 -16 3 -12 -17 11 -63 -3 -63 -18 0 -7 -7 -15 -14 -18 -10 -4 -13 -1 -9 9 3
7 1 14 -5 14 -5 0 -12 -9 -15 -21 -3 -12 -10 -18 -16 -14 -17 10 -36 -6 -20
-17 11 -8 10 -8 -4 -4 -19 6 -57 -12 -57 -27 0 -5 12 -6 28 -3 22 5 24 4 9 -5
-10 -6 -28 -12 -40 -13 -38 -4 -50 -15 -35 -33 10 -13 9 -14 -12 -11 -25 3
-40 -17 -18 -25 7 -2 3 -2 -9 -1 -25 5 -42 -14 -23 -26 10 -6 8 -14 -6 -34
-21 -28 -37 -35 -28 -11 4 8 2 15 -2 15 -16 -1 -54 -38 -54 -52 0 -7 -6 -22
-13 -33 -7 -11 -14 -57 -16 -103 -2 -82 -2 -85 38 -152 24 -41 55 -77 75 -89
31 -19 39 -20 80 -10 54 14 69 29 29 30 -56 2 -68 4 -70 13 -1 5 -7 12 -14 17
-7 4 6 5 30 2 54 -7 154 25 181 58 13 16 49 27 68 22 12 -3 22 -1 22 5 0 5 9
12 20 15 11 3 20 1 20 -4 0 -5 -4 -9 -8 -9 -15 0 -6 -114 11 -145 29 -53 43
-65 75 -65 42 0 141 37 172 65 14 12 36 28 50 35 24 12 91 64 134 103 21 18
37 19 38 2 0 -6 4 -15 9 -21 5 -6 11 -24 13 -40 6 -49 16 -62 61 -83 24 -11
46 -25 50 -30 12 -20 188 6 224 33 7 6 22 15 32 21 46 25 107 72 141 108 37
38 38 39 140 48 56 5 105 13 108 18 3 4 15 10 28 13 21 6 22 3 22 -54 0 -139
93 -238 208 -223 26 4 56 10 67 14 11 5 45 14 75 20 57 13 228 90 229 104 2
19 132 120 142 110 11 -13 40 -113 35 -122 -9 -14 88 -107 126 -120 31 -10 41
-10 61 4 13 8 31 13 40 10 8 -4 23 2 34 14 10 11 31 25 47 31 16 6 27 13 24
15 -6 7 105 125 117 125 6 0 16 14 24 31 7 17 22 39 33 49 13 12 21 33 22 57
1 35 -1 38 -23 35 -26 -4 -51 -24 -51 -41 0 -6 -4 -11 -10 -11 -5 0 -19 -8
-29 -17 -54 -50 -121 -83 -165 -83 -33 0 -39 4 -54 38 -10 24 -17 69 -19 127
l-2 90 35 40 c56 63 174 221 174 232 0 6 7 13 15 17 8 3 15 10 15 16 0 5 7 18
15 27 32 39 65 90 87 133 12 25 25 47 29 50 3 3 14 39 23 80 10 41 23 84 30
95 7 11 17 36 21 55 4 19 10 39 13 44 15 25 9 82 -13 132 -23 53 -25 54 -64
54 -23 0 -41 -4 -41 -9z m-27 -283 c8 -28 -3 -108 -14 -108 -5 0 -9 -12 -9
-27 0 -16 -9 -39 -20 -53 -11 -14 -20 -29 -20 -34 0 -5 -15 -27 -33 -50 -18
-23 -52 -67 -74 -99 -23 -32 -44 -54 -47 -49 -3 5 3 38 14 73 12 35 30 93 41
129 19 60 57 148 69 160 3 3 16 22 30 42 28 42 55 49 63 16z m-2303 -436 c0
-10 -47 -52 -58 -52 -4 0 -16 -16 -26 -35 -11 -19 -25 -35 -33 -35 -8 0 -11
-4 -8 -10 3 -5 2 -10 -4 -10 -6 0 -7 -8 -4 -17 5 -12 2 -15 -10 -10 -9 3 -17
2 -17 -3 0 -6 5 -10 12 -10 6 0 3 -9 -7 -20 -10 -11 -25 -20 -33 -20 -9 0 -13
-7 -9 -20 3 -11 1 -18 -4 -14 -5 3 -9 0 -9 -5 0 -6 -7 -11 -15 -11 -8 0 -15
-6 -15 -14 0 -8 -13 -20 -30 -28 -20 -9 -30 -20 -30 -35 0 -13 -8 -24 -20 -28
-11 -3 -20 -11 -20 -16 0 -5 -12 -7 -27 -4 -23 4 -24 4 -8 -4 18 -8 16 -11
-20 -26 -22 -10 -50 -18 -62 -19 -13 0 -23 -4 -23 -8 0 -14 -37 -8 -51 8 -10
13 -10 17 2 25 12 7 11 9 -3 9 -24 0 -32 18 -29 64 2 34 11 49 79 116 75 75
125 110 157 110 14 0 54 19 65 31 3 3 20 11 38 18 17 8 32 17 32 22 0 5 10 9
23 9 19 0 18 -3 -13 -22 -69 -44 -77 -63 -11 -29 20 10 60 31 90 46 30 15 61
33 68 41 16 15 33 19 33 6z m1578 -44 c3 -21 -8 -37 -50 -77 -46 -45 -173
-119 -184 -109 -2 2 12 35 30 72 48 97 109 147 171 143 24 -2 31 -7 33 -29z"/>
<path d="M9507 2172 c-44 -27 -71 -93 -64 -159 3 -31 9 -59 14 -64 4 -4 27
-10 50 -14 56 -8 100 21 131 86 27 58 28 87 5 128 -26 44 -83 54 -136 23z"/>
</g>
</svg>
